<svg height="511pt" viewBox="-73 0 511 511.99969" width="511pt" fill="#000000" xmlns="http://www.w3.org/2000/svg"><path d="m147.753906 391.972656c-1.40625 12.472656-11.953125 21.894532-24.5 21.894532h-19.25v73.234374c0 12.480469 10.144532 23.9375 22.59375 24.832032 14.292969 1.027344 26.207032-10.261719 26.207032-24.335938v-123.371094c-.660157.359376-1.335938.695313-2.039063.980469zm0 0"/><path d="m268.46875 172.265625-23.328125-49.75c-7.101563-15.136719-22.308594-24.804687-39.027344-24.804687h-102.722656c-26.402344 0-48.460937 21.480468-48.589844 47.878906v147.03125c-6.863281 2.769531-11.988281 9.484375-11.988281 17.324218v14.199219h-34.378906c-4.382813 0-7.933594 3.550781-7.933594 7.929688v14.597656c0 4.378906 3.550781 7.929687 7.933594 7.929687h3.453125l4.058593 36.023438c.714844 6.371094 6.105469 11.1875 12.515626 11.1875h94.792968c6.410156 0 11.800782-4.816406 12.519532-11.1875l4.054687-36.023438h3.457031c4.378906 0 7.929688-3.550781 7.929688-7.929687v-14.597656c0-4.378907-3.550782-7.929688-7.929688-7.929688h-34.382812v-14.199219c0-8.574218-5.550782-15.800781-13.4375-17.988281 0-.101562 0-146.265625 0-146.164062.019531-4.078125 4.550781-7.414063 8.628906-7.414063v145.464844c9.230469 5.050781 15.859375 14.859375 15.859375 26.101562v2.140626h23.332031c3.441406 0 6.6875.875 9.519532 2.417968v-21.933594h10.53125v194.53125c0 12.480469 10.144531 23.9375 22.597656 24.832032 14.289062 1.027344 26.207031-10.261719 26.207031-24.332032v-339.65625l24.992187 53.285157c3.347657 7.140625 10.523438 11.699219 18.410157 11.699219h43.007812l10.070313-40.664063zm-210.585938 137.679687c0-.921874.359376-1.757812.933594-2.398437 3.699219 4.746094 9.449219 7.824219 15.933594 7.859375h.105469c6.9375 0 13.066406-3.484375 16.738281-8.800781 1.308594.542969 2.238281 1.835937 2.238281 3.339843v14.199219h-35.949219zm6.808594 30.960938c0-2.109375 1.707032-3.820312 3.816406-3.820312h14.699219c2.109375 0 3.820313 1.710937 3.820313 3.820312v27.390625c0 2.109375-1.710938 3.820313-3.820313 3.820313h-14.699219c-2.109374 0-3.816406-1.710938-3.816406-3.820313zm0 0"/><path d="m362.429688 192.597656c0-6.503906-3.0625-12.277344-7.816407-16l-8.910156 35.996094c9.507813-1.707031 16.726563-10 16.726563-19.996094zm0 0"/><path d="m156.78125 84.226562c25.003906 1.265626 45.546875-19.273437 44.277344-44.28125-1.085938-21.410156-18.480469-38.804687-39.890625-39.8906245-25.007813-1.2656255-45.546875 19.2734375-44.277344 44.2812505 1.082031 21.410156 18.480469 38.804687 39.890625 39.890624zm0 0"/><path d="m325.035156 156.125-15.742187 63.578125c-1.3125 5.3125 1.34375 10.972656 6.445312 12.949219 1.316407.511718 2.652344.75 3.957031.75 4.84375 0 9.246094-3.285156 10.464844-8.199219l15.820313-63.890625c5.960937-1.289062 11.28125-4.773438 14.839843-9.773438 1.738282-2.445312 3.0625-5.246093 3.828126-8.335937 2.117187-8.554687-.53125-17.167969-6.257813-23.046875-1.695313-1.742188-4.644531-.269531-4.359375 2.144531l1.046875 8.824219c.164063 1.375-.296875 2.746094-1.257813 3.742188l-5.746093 5.972656c-1.144531 1.1875-2.832031 1.675781-4.433594 1.277344l-7.578125-1.875c-1.601562-.398438-2.867188-1.617188-3.324219-3.199219l-2.296875-7.964844c-.382812-1.328125-.152344-2.757813.632813-3.894531l5.046875-7.316406c1.378906-2-.542969-4.679688-2.855469-3.933594-7.808594 2.527344-14.171875 8.910156-16.292969 17.46875-.765625 3.085937-.898437 6.183594-.5 9.15625.8125 6.082031 3.894532 11.648437 8.5625 15.566406zm0 0"/></svg>